<mxfile host="app.diagrams.net" modified="2024-05-30T09:23:35.893Z" agent="Mozilla/5.0 (X11; Linux x86_64) AppleWebKit/537.36 (KHTML, like Gecko) Chrome/120.0.0.0 Safari/537.36" version="24.4.10" etag="ZSaDXlnbXsX_P5f-JSju" type="github">
  <diagram name="第 1 页" id="Nev-NBMiPl758LvH1IVy">
    <mxGraphModel>
      <root>
        <mxCell id="0" />
        <mxCell id="1" parent="0" />
      </root>
    </mxGraphModel>
  </diagram>
</mxfile>
